<?xml version="1.0" encoding="utf-8"?>
<!-- Generator: Adobe Illustrator 19.1.0, SVG Export Plug-In . SVG Version: 6.00 Build 0)  -->
<svg version="1.0" id="Layer_1" xmlns="http://www.w3.org/2000/svg" xmlns:xlink="http://www.w3.org/1999/xlink" x="0px" y="0px"
	 viewBox="0 0 316.8 190.8" style="enable-background:new 0 0 316.8 190.8;" xml:space="preserve">
<style type="text/css">
	.st0{fill:url(#SVGID_1_);}
	.st1{fill:#A8AAAA;}
	.st2{fill:#010101;}
	.st3{fill:#020202;}
	.st4{fill:#A8A9AA;}
	.st5{fill:#A8AAAB;}
	.st6{fill:#A9ABAA;}
	.st7{fill:#A9ABAC;}
	.st8{fill:#040404;}
	.st9{fill:#F9FCFA;}
	.st10{fill:#A7A9AA;}
	.st11{fill:#A7AAAA;}
	.st12{fill:url(#SVGID_2_);}
	.st13{fill:#FFFFFF;}
	.st14{fill:url(#SVGID_3_);}
	.st15{fill:url(#SVGID_4_);}
	.st16{fill:url(#SVGID_5_);}
</style>
<g>
	<linearGradient id="SVGID_1_" gradientUnits="userSpaceOnUse" x1="20.2355" y1="55.1067" x2="292.4268" y2="55.1067">
		<stop  offset="0" style="stop-color:#2772AF"/>
		<stop  offset="6.540698e-02" style="stop-color:#4F96A9"/>
		<stop  offset="0.1241" style="stop-color:#51A4BA"/>
		<stop  offset="0.4201" style="stop-color:#58C9E8"/>
		<stop  offset="0.6653" style="stop-color:#57C5E3"/>
		<stop  offset="0.969" style="stop-color:#3C7888"/>
		<stop  offset="0.9953" style="stop-color:#2772AF"/>
	</linearGradient>
	<path class="st0" d="M100.8,70.2c1.8-3.4,3.4-6.6,5.1-9.7c5.4-9.6,10.8-19.3,16.2-28.9c2.7-4.8,5.2-9.7,8.2-14.3
		c4.6-6.9,12.4-9,19.9-5.7c4.6,2,7.1,5.9,8.5,10.6c3.1,10.6,6.1,21.2,9.2,31.8c1.1,3.8,2.2,7.8,4,11.4c3.2,6.1,9,8.9,15.5,10.4
		c2.1,0.5,4.4,0.7,6.6,0.7c32.3,0,64.7,0,97,0c0.3,0,0.7,0,1.4,0c-0.4,0.7-0.6,1.3-0.9,1.7c-6.1,9.3-14.7,15-25,18.5
		c-7.1,2.4-14.4,3.4-21.9,3.5c-16.3,0-32.6,0-48.8,0c-9.9,0-19.3-2-28.3-6.2c-11-5.2-17.7-13.9-21.1-25.3
		c-2.2-7.2-3.9-14.6-5.8-21.9c-0.1-0.5-0.3-1-0.7-2.1c-0.5,0.9-0.8,1.3-1.1,1.8c-5.1,9.9-10.1,19.8-15.2,29.6
		c-3.1,6-6.3,11.9-9.7,17.6c-2.7,4.5-6.9,6.6-12.2,6.6c-4,0-7.8-0.1-11.2-2.7c-2.8-2.2-4.4-5.1-6-8.1c-7.4-14-14.7-28-22.1-42.1
		c-0.4-0.8-0.8-1.7-1.4-2.9c-0.3,1-0.5,1.5-0.7,2.1c-4.1,16-8.3,32-12.4,48c-1.1,4.4-1.2,4.3-5.8,4.3c-6.6,0-13.2,0-19.9,0
		c-0.5,0-1,0-1.9,0c0.8-2.8,1.5-5.3,2.2-7.9c3.6-12.3,7.3-24.5,10.9-36.8c3.2-10.8,6.2-21.5,9.4-32.3c2.8-9.4,11.7-14,21-10.7
		c4.1,1.5,6.8,4.6,8.9,8.3c7.8,13.7,15.5,27.5,23.2,41.3C97.5,63.7,99,66.8,100.8,70.2z"/>
	<path class="st1" d="M186.5,9.7c0.8,0,1.5,0,2.1,0c19,0,38.1-0.1,57.1,0c12.5,0,24,3.4,34,11c9.9,7.5,15.9,17.4,17.3,30
		c0.7,6.1,0.1,12.1-1.8,17.9c-0.3,0.9-0.6,1.4-1.6,1.4c-9.6,0-19.2,0-28.8,0c-0.2,0-0.3-0.1-0.7-0.1c1-1.1,1.9-2.1,2.7-3.2
		c8.1-10.8,4.4-28.3-12.2-32.7c-3.5-0.9-7.2-1.3-10.9-1.4c-9.4-0.2-18.9-0.1-28.3-0.1c-0.6,0-1.3,0-2.1,0c0,12.6,0,24.9,0,37.5
		c-9,0-17.9,0-26.8,0C186.5,49.9,186.5,30,186.5,9.7z"/>
	<path class="st2" d="M33,134.4c2.3-4.4,4.5-8.6,6.7-12.8c0.4-0.8,0.9-1.7,1.6-2.3c0.8-0.6,1.7-0.7,2.7-0.3c0.9,0.3,0.9,1.1,0.9,1.9
		c0,3.3,0,6.6,0,9.8c0,6.1,0,12.3,0,18.4c0,1.4-0.5,2-1.8,2c-1.3,0-2.1-0.5-2-2c0-7.2,0-14.4,0-21.6c-0.7,0.1-0.7,0.6-0.8,1
		c-1.9,3.4-3.7,6.9-5.5,10.3c-0.4,0.7-0.8,1.3-1.7,1.4c-0.9,0-1.3-0.7-1.6-1.4c-1.9-3.7-3.8-7.3-5.8-11c-0.1-0.2-0.1-0.6-0.6-0.6
		c0,7.3,0,14.6,0,21.9c0,1.3-0.4,2-1.8,2c-1.5,0-2-0.6-2-2.1c0-9.3,0-18.6,0-27.9c0-0.9-0.1-1.9,1-2.2c1.1-0.3,2.1-0.2,2.9,0.7
		c1.1,1.2,1.7,2.8,2.4,4.2C29.3,127.4,31.1,130.8,33,134.4z"/>
	<path class="st2" d="M129.6,151.6c-1.2,0-2.9-0.3-4.5-1c-0.7-0.3-1.3-0.7-1.8-1.3c-0.6-0.8-0.5-1.5,0.1-2.2c0.6-0.8,1.3-0.5,2,0
		c1.9,1.4,4,1.8,6.3,1.4c1.2-0.2,2.2-0.8,2.5-2.1c0.3-1.4-0.3-2.4-1.5-3.1c-1.6-1-3.5-1.2-5.3-1.9c-4.3-1.7-5.4-6.5-2.2-9.6
		c2.3-2.2,8.5-2.5,11.1-0.5c0.8,0.6,0.8,1.3,0.4,2.2c-0.4,0.8-1,1-1.9,0.6c-1.7-0.8-3.4-1.4-5.4-0.9c-1.5,0.4-2.4,1.3-2.5,2.8
		c-0.1,1.4,0.9,2.1,2.1,2.5c1.3,0.5,2.6,0.8,3.8,1.2c2.5,0.9,4.6,2.1,4.9,5.1C138,149.1,135.3,151.6,129.6,151.6z"/>
	<path class="st2" d="M84.1,140.5c0.1-1.3-0.2-2.9,0.3-4.5c0.9-3.4,3.2-5.5,6.7-5.9c2.2-0.3,4.3-0.1,6.3,0.8
		c0.7,0.3,1.3,0.7,1.8,1.4c0.5,0.8,0.2,1.5-0.2,2.1c-0.5,0.6-1.2,0.7-1.9,0.3c-0.8-0.5-1.6-0.9-2.5-1.1c-3.7-0.9-6.4,1-6.7,4.8
		c-0.1,1.5-0.1,3-0.1,4.6c0.2,4.4,3.7,6.6,7.8,4.9c0.5-0.2,1.1-0.5,1.5-0.8c0.8-0.5,1.5-0.4,2,0.2c0.6,0.7,0.7,1.5,0.1,2.3
		c-0.1,0.2-0.3,0.4-0.5,0.5c-3.3,2.2-6.8,2.3-10.4,0.8c-3.1-1.3-4.3-4.1-4.4-7.4C84.1,142.5,84.1,141.6,84.1,140.5z"/>
	<path class="st3" d="M194.5,134.5c0,4.9,0,9.7,0,14.6c0,1.4-0.5,2.2-2,2.2c-1.5,0-1.8-0.9-1.8-2.2c0-9.8,0-19.5,0-29.3
		c0-1.4,0.4-2.2,1.8-2.2c1.4,0,2.1,0.6,2,2.2C194.4,124.7,194.5,129.6,194.5,134.5z"/>
	<path class="st3" d="M267.3,134.5c0,4.9,0,9.8,0,14.7c0,1.4-0.5,2.1-1.9,2.1c-1.3,0-1.9-0.7-1.9-2c0-9.9,0-19.9,0-29.8
		c0-1.4,0.7-1.9,1.9-1.9c1.2,0,1.9,0.6,1.8,2C267.3,124.5,267.3,129.5,267.3,134.5z"/>
	<path class="st3" d="M204.2,134.4c0,4.9,0,9.7,0,14.6c0,1.3-0.3,2.3-1.9,2.4c-1.5,0-1.9-0.8-1.9-2.3c0-9.8,0-19.5,0-29.3
		c0-1.4,0.4-2.2,1.8-2.2c1.4,0,2,0.8,2,2.2C204.1,124.7,204.2,129.5,204.2,134.4C204.2,134.4,204.2,134.4,204.2,134.4z"/>
	<path class="st2" d="M74,133.1c1.7-2.3,3.8-3.4,6.6-3.2c1.2,0.1,1.9,0.4,2,1.7c0,1.2-0.7,1.8-1.9,1.7c-4.2-0.4-6.7,2.9-6.7,7
		c0,3,0,6,0,9c0,1.4-0.6,1.9-1.9,2c-1.4,0-1.9-0.9-1.9-2.2c0-5.6,0-11.1,0-16.7c0-1.3,0.4-2.2,1.8-2.2c1.4,0,2,0.8,1.8,2.2
		C73.9,132.5,74,132.7,74,133.1z"/>
	<path class="st4" d="M186.1,168.8c0,3.5,0,6.8,0,10.2c0,0.7,0.4,1.8-1,1.8c-1.3,0-1.1-1-1.1-1.8c0-4.6,0-9.1,0-13.7
		c0-0.7-0.2-1.5,0.8-1.7c0.8-0.2,1.3,0.3,1.7,1c1.4,2.6,2.8,5.3,4.1,7.9c0.5,1,1,2,1.8,2.9c0-2.4,0-4.8,0-7.2c0-1.2,0-2.3,0-3.5
		c0-0.7,0.2-1.2,1-1.2c0.8,0,1.1,0.5,1.1,1.2c0,0.2,0,0.4,0,0.5c0,4.6,0,9.1,0,13.7c0,0.7,0.2,1.5-0.8,1.7c-0.9,0.2-1.4-0.4-1.8-1.1
		c-1.7-3.2-3.3-6.4-5-9.6C186.8,169.6,186.7,169.1,186.1,168.8z"/>
	<path class="st1" d="M261,172.6c0-1.8-0.1-3.2,0-4.6c0.1-2.2,1.1-3.6,3.1-4.2c2.3-0.7,4.4-0.4,6.2,1.3c0.6,0.6,0.9,1.4,0.9,2.2
		c0,0.6,0.2,1.2-0.7,1.4c-0.8,0.2-1.1-0.3-1.4-1c-0.9-2.2-2.1-2.8-4-2.2c-1.5,0.5-2,1.6-2,2.9c-0.1,2.6-0.1,5.1,0,7.7
		c0.1,1.9,1.2,2.8,3.1,2.8c2,0,2.8-0.8,2.9-2.9c0.1-2.4,0.1-2.4-2.3-2.7c-0.5-0.1-1-0.1-0.9-0.8c0-0.5,0.3-0.9,0.8-0.9
		c1.2,0,2.5,0,3.7,0c0.5,0,0.8,0.4,0.8,1c0.2,1.9,0.2,3.7-0.4,5.5c-0.7,2-2.6,3-4.9,2.9c-2.7-0.1-4.2-1.3-4.7-3.6
		C260.7,175.8,261.1,174,261,172.6z"/>
	<path class="st4" d="M99.6,171.9c0.1-1.5-0.2-3.3,0.3-5.1c0.6-2,2-3.1,4.3-3.2c2.6-0.2,4.8,0.9,5.5,2.7c0.1,0.4,0.2,0.8,0.2,1.2
		c0,0.6,0,1.2-0.8,1.4c-0.9,0.2-1.2-0.4-1.3-1.1c-0.2-1.4-1.1-2-2.4-2.2c-2-0.4-3.6,0.8-3.6,3c-0.1,2.6-0.1,5.2,0,7.7
		c0.1,1.9,1.2,2.9,3.2,2.9c1.9,0,2.7-0.9,2.8-2.9c0-0.4,0-0.8,0-1.2c0.2-1.3-0.4-1.6-1.6-1.6c-0.6,0-1.6,0.4-1.6-0.7
		c-0.1-1.2,0.9-1,1.7-1c4.3,0,3.4-0.4,3.7,3.8c0.3,4.9-3.7,6.3-7.1,5.3c-1.9-0.6-3.1-2.1-3.2-4.5C99.6,174.9,99.6,173.5,99.6,171.9z
		"/>
	<path class="st1" d="M22.6,170.8c0-1.9,0-3.9,0-5.8c0-0.6-0.1-1.4,0.9-1.4c1.1,0,1.1,0.7,1.1,1.4c0,3.7,0.1,7.5,0.1,11.2
		c0,1.3,0.4,2.4,1.8,2.7c1.3,0.3,2.7,0.4,3.7-0.9c0.5-0.7,0.6-1.4,0.6-2.1c0-3.5,0-7,0-10.5c0-0.8-0.2-1.8,1.1-1.8
		c1.3,0,1,1.1,1,1.8c0,3.5,0,7,0,10.5c0,3.3-1.8,5.1-5.1,5.1c-3.3,0-5.1-1.8-5.2-5.1C22.6,174.3,22.6,172.5,22.6,170.8z"/>
	<path class="st2" d="M272.9,140.6c0-2.8,0.1-5.6,0-8.4c0-1.4,0.7-2,1.8-2c1.3,0,2,0.6,2,2c0,5.7,0,11.3,0,17c0,1.4-0.7,2-2.1,2
		c-1.3,0-1.8-0.7-1.8-2C272.9,146.4,272.9,143.5,272.9,140.6z"/>
	<path class="st5" d="M202.5,172.2c0,1.3,0,2.7,0,4c0,1.5,0.6,2.5,2.1,2.7c2,0.3,3.1-0.2,3.7-1.8c0.3-0.8,0.3-1.8,1.5-1.4
		c1.2,0.4,0.8,1.4,0.5,2.2c-0.6,1.8-2.4,3-4.6,3.1c-2.4,0.1-4.4-0.9-4.9-2.8c-1-3.9-0.9-7.9-0.1-11.8c0.4-2,2.7-3.1,5.2-2.9
		c2.4,0.1,3.9,1.2,4.5,3.2c0.2,0.8,0.4,1.6-0.5,1.9c-1,0.4-1.2-0.3-1.5-1.2c-0.6-1.7-1.8-2.4-3.3-2.1c-1.9,0.3-2.5,1-2.6,3.1
		C202.5,169.8,202.5,171,202.5,172.2z"/>
	<path class="st6" d="M70.4,172.2c0-2.3,0-4.7,0-7c0-0.7-0.1-1.6,1-1.7c1.1,0,1.1,0.8,1.1,1.6c0,4.1,0.1,8.2,0,12.3
		c0,1.2,0.4,1.6,1.6,1.6c1.4-0.1,2.8,0,4.2,0c0.6,0,1.2,0.1,1.2,0.9c0.1,0.9-0.6,0.9-1.2,0.9c-2.2,0-4.4,0-6.7,0
		c-1,0-1.3-0.4-1.3-1.4C70.5,177,70.4,174.6,70.4,172.2z"/>
	<path class="st5" d="M231.8,172.2c0-2.3,0-4.6,0-6.8c0-0.8-0.2-1.8,1.1-1.8c1.1,0,1,1,1,1.7c0,4,0.1,8.1,0,12.1
		c0,1.3,0.4,1.8,1.7,1.7c1.3-0.1,2.6,0,3.9,0c0.7,0,1.5-0.1,1.5,1c0,1-0.8,0.8-1.4,0.8c-2,0-4.1-0.1-6.1,0c-1.3,0.1-1.6-0.5-1.6-1.6
		C231.8,176.8,231.8,174.5,231.8,172.2z"/>
	<path class="st7" d="M278.9,172.3c0,2.3,0,4.7,0,7c0,0.7,0.1,1.5-1,1.5c-1,0-1.1-0.6-1.1-1.4c0-4.8,0-9.6,0-14.4
		c0-0.8,0.1-1.5,1.1-1.4c1,0,1,0.8,1,1.5C278.9,167.5,278.9,169.9,278.9,172.3z"/>
	<path class="st6" d="M117.6,172.1c0,2.5,0,4.9,0,7.4c0,0.7-0.1,1.3-1,1.3c-0.8,0-1.1-0.5-1.1-1.3c0-4.9,0-9.8,0-14.7
		c0-0.8,0.3-1.3,1.1-1.2c0.7,0,1,0.6,0.9,1.2C117.6,167.2,117.6,169.7,117.6,172.1C117.6,172.1,117.6,172.1,117.6,172.1z"/>
	<path class="st8" d="M274.4,124.6c-1.1-0.1-1.9-0.7-1.9-2.1c0-1.3,1-2.2,2.4-2.1c1.3,0.1,2.2,0.8,2.1,2.2
		C277,123.7,276,124.6,274.4,124.6z"/>
	<path class="st9" d="M207.9,132.6c-0.3-0.2-0.7-0.4-0.9-1C207.7,131.7,207.8,132.1,207.9,132.6z"/>
	<path d="M165.1,126c-0.5-4.5-3.7-7-8.3-7.1c-2.7-0.1-5.5,0-8.2,0c-2,0-2.3,0.3-2.3,2.4c0,4.6,0,9.2,0,13.9c0,0,0,0,0,0
		c0,4.7,0,9.5,0,14.2c0,1.3,0.5,2,1.8,1.9c3,0,6.1,0.1,9.1-0.1c4.4-0.2,7.4-2.6,7.9-7C165.7,138.2,165.7,132.1,165.1,126z
		 M161.4,143c-0.1,2.9-2,4.6-4.8,4.8c-1.8,0.1-3.6,0.1-5.4,0.2c-1.1,0.1-1.2-0.4-1.2-1.3c0-3.8,0-7.6,0-11.4c0-3.7,0-7.5,0-11.2
		c0-1.2,0.2-1.7,1.5-1.6c1.6,0.1,3.2,0,4.7,0c3.1,0.1,5.2,1.9,5.3,5C161.6,132.5,161.6,137.7,161.4,143z"/>
	<path d="M237.7,126.3c-0.2-3.5-2.6-6.2-5.9-7c-2.1-0.5-4.1-0.6-6.3-0.1c-3.6,0.7-5.8,2.9-6.5,6.4c-0.6,3.2-0.1,6.4-0.3,9.1
		c0,3,0,5.5,0,7.9c0.1,5,2.6,8,7.4,8.8c1.6,0.3,3.3,0.2,4.9-0.1c3.8-0.8,6.4-3.3,6.6-7.1C238.1,138.2,238.1,132.3,237.7,126.3z
		 M234,142.9c-0.2,3.6-2.4,5.3-6.1,5.2c-3.2-0.1-5.2-2.1-5.3-5.5c-0.1-2.5,0-4.9,0-7.4c0,0,0,0,0,0c0-2.5-0.1-4.9,0-7.4
		c0.1-3.4,2-5.3,5.4-5.4c3.7-0.1,5.8,1.6,6,5.1C234.3,132.6,234.3,137.8,234,142.9z"/>
	<path class="st2" d="M259,131.4c0.7-0.3,1.5-0.7,1-1.7c-0.5-0.9-1.2-1.2-2.2-0.8c-0.7,0.3-1.3,0.7-1.6,1.4c-0.5,1.1-1,1.1-2.1,0.5
		c-5.1-2.6-11,0.1-11.7,5.3c-0.4,3-0.1,5.9,2.3,8.1c-2.8,2.2-2.8,4.2-0.1,6.4c-2.1,1.1-3.5,2.7-3.2,5.1c0.2,2.6,2,4,4.3,4.8
		c2.9,1.1,6,1.1,9,0.3c0.2,0,0.3-0.1,0.5-0.2c3.2-1.1,4.6-3.2,4.5-6.3c-0.1-2.5-1.9-4.3-5.1-4.9c-2.3-0.5-4.6-0.7-6.9-1.1
		c-0.9-0.2-1.8-0.6-1.5-1.8c0.3-1.1,1.1-1,2.1-0.8c3.2,0.7,6.2,0.2,8.5-2.4c2.3-2.7,2.3-5.9,1.1-8.9
		C257,132.7,257.5,132.1,259,131.4z M248.9,151.5c2.1,0.1,3.5,0.3,4.9,0.8c1.2,0.4,2.1,1.2,2.1,2.5c0,1.3-0.5,2.4-1.8,3
		c-2.4,1.2-4.8,1.2-7.2,0.1c-1.6-0.8-2.3-2.2-1.9-3.7C245.5,152.6,247.4,151.5,248.9,151.5z M249.6,143.5c-2.7-0.4-4-3.2-3.4-7.2
		c0.4-2.6,2.4-4.1,5-3.7c2.3,0.4,3.5,2.3,3.5,5.4C254.7,141.9,252.7,144,249.6,143.5z"/>
	<path class="st2" d="M298.5,141.2c0-1.2,0-1.9,0-2.6c0-4.8-3.9-8.6-8.7-8.7c-4.7,0-8.7,3.7-8.8,8.4c0,1.5-0.1,3,0,4.6
		c0.1,3.6,1.9,6.2,5.1,7.8c3.2,1.6,6.3,1.1,9.1-1C298.1,147.5,298.9,144.3,298.5,141.2z M293.4,146.5c-1.4,1.5-3.1,2.2-5.1,1.5
		c-2-0.7-3.3-2.2-3.5-4.4c-0.2-1.9-0.1-3.7,0-5.6c0.2-2.6,2.6-4.7,5-4.7c2.5,0.1,4.7,2.3,4.9,4.9c0,0.9,0,1.8,0,3.1
		C294.8,142.8,295,144.8,293.4,146.5z"/>
	<path class="st2" d="M185.3,137.5c-0.2-3.8-2.3-6.3-5.6-7.2c-2.5-0.6-5-0.4-7.4,0.5c-1.2,0.5-2.2,1.2-1.6,2.6
		c0.7,1.6,1.8,0.8,2.8,0.4c0.4-0.2,0.9-0.4,1.3-0.5c3.8-0.9,6.6,1.1,6.8,4.9c0,1-0.3,1.3-1.3,1.3c-2.3-0.1-4.6-0.1-6.8,0.6
		c-3.5,1.1-4.9,3.3-4.3,6.9c0.4,2.9,2.8,4.5,6.1,4.5c2.6,0,4.4-1.5,6.5-3.2c0,0.6,0,0.9,0,1.2c-0.1,1.3,0.7,1.6,1.8,1.6
		c1.1,0,1.8-0.5,1.8-1.7C185.4,145.6,185.5,141.5,185.3,137.5z M181.3,145.2c-1,2-2.6,3.1-4.8,3.3c-1.8,0.2-3.2-0.8-3.5-2.5
		c-0.3-1.9,0.4-3,2.3-3.7c1.3-0.4,2.6-0.4,3.6-0.5C181.6,141.9,182.3,143,181.3,145.2z"/>
	<path d="M119.8,140.7c0-0.6,0-1.3,0-1.9c0-4.9-3.6-8.6-8.4-8.8c-4.8-0.2-8.6,3.2-9.1,8.1c-0.2,1.9-0.2,3.7,0,5.6
		c0.4,3.5,2.3,5.9,5.5,7.3c3.3,1.4,6.3,0.7,9-1.5C119.5,147.1,120.2,144.1,119.8,140.7z M115.8,144.6c-0.7,2.1-2.8,3.7-4.9,3.7
		c-2.1-0.1-4.2-1.7-4.7-3.9c-0.5-2.2-0.5-4.5-0.1-6.8c0.5-2.6,2.7-4.3,5.1-4.2c2.5,0.1,4.6,2.3,4.8,4.9c0.1,0.8,0,1.6,0,2.5
		C116.1,142,116.3,143.3,115.8,144.6z"/>
	<path class="st2" d="M65.3,138.4c0-3.5-1.3-6.4-4.8-7.8c-2.2-0.9-4.6-0.8-6.9-0.2c-0.9,0.2-1.7,0.5-2.4,1c-0.9,0.6-0.9,1.4-0.4,2.3
		c0.4,0.9,1.2,0.8,1.9,0.5c0.6-0.2,1.2-0.5,1.8-0.7c3.9-1.1,6.8,0.9,7.1,4.7c0.1,1.1-0.2,1.5-1.3,1.4c-2-0.1-4.1-0.1-6.1,0.4
		c-3.6,0.8-5.5,3.2-5.1,6.4c0.5,3.6,2.7,5.3,6.6,5.2c2.4-0.1,4.1-1.5,5.8-3c0.1,0.3,0.2,0.4,0.1,0.6c0,1.4,0.6,2.1,2,2
		c1.4-0.1,1.7-0.9,1.7-2.2C65.3,145.5,65.4,142,65.3,138.4z M61.6,143.3c0,3.3-3.5,6-6.5,5.1c-1.3-0.4-2.1-1.2-2.2-2.6
		c-0.1-1.3,0.3-2.4,1.5-3.1c2.1-1,4.3-0.9,6.5-0.9C62,141.8,61.4,142.8,61.6,143.3z"/>
	<path class="st1" d="M48.7,178.6c-0.8-1.5-1.5-3-2.4-4.5c-0.4-0.8-0.4-1.1,0.5-1.6c2.1-1.1,2.8-3,2.2-5.5c-0.5-2.2-1.8-3.3-4.2-3.4
		c-1.5-0.1-3,0-4.6,0c-1.1,0-1.5,0.4-1.4,1.5c0,2.4,0,4.8,0,7.2c0,2.3,0,4.7,0,7c0,0.8,0,1.6,1.1,1.6c1.1,0,0.9-0.8,0.9-1.5
		c0-1.6,0.1-3.3,0-4.9c-0.1-1.2,0.5-1.4,1.5-1.2c0.9,0.1,1.5,0.5,1.9,1.3c0.8,1.7,1.7,3.3,2.5,5c0.4,0.8,0.8,1.7,1.9,1.2
		C49.8,180.1,49.1,179.3,48.7,178.6z M42.6,171.6c-1.3,0.3-1.9-0.3-1.7-1.8c0.1-0.6-0.1-1.2,0-1.7c0.2-0.9-0.6-2.1,0.5-2.7
		c1.1-0.6,4.3,0.2,5,1c0.9,1.1,0.9,2.4,0.3,3.6C46.3,171.1,45.1,171.6,42.6,171.6z"/>
	<path class="st5" d="M178.3,172.5c-0.1-1.8,0.1-3.5-0.3-5.2c-0.5-2.3-2.1-3.7-4.8-3.8c-2.9-0.1-4.7,1-5.1,3.4
		c-0.6,3.4-0.5,6.8-0.1,10.1c0.3,2.6,2.4,4.1,5.1,4c2.9-0.1,4.4-1.4,5-4.2C178.4,175.4,178.2,173.9,178.3,172.5z M175.9,172.3
		c0,1.4,0,2.8,0,4.2c0,1.5-0.8,2.4-2.4,2.5c-1.9,0.2-3.1-0.4-3.4-2c-0.5-3.2-0.5-6.4,0-9.6c0.2-1.5,1.7-2.3,3.1-2.1
		c1.7,0.2,2.6,1.1,2.6,2.9C176,169.6,175.9,171,175.9,172.3C175.9,172.3,175.9,172.3,175.9,172.3z"/>
	<path class="st10" d="M225.8,168.3c-0.1-2.9-1.8-4.6-4.7-4.7c-3.1-0.1-5.2,1.3-5.4,4.2c-0.2,3-0.2,6.1,0,9.1
		c0.2,2.8,2.2,4.3,5.2,4.2c3.1-0.1,4.9-1.8,4.9-4.7c0-1.3,0-2.7,0-4C225.8,171,225.8,169.6,225.8,168.3z M223.7,172.4
		c0,1.3,0,2.7,0,4c-0.1,1.7-0.9,2.5-2.6,2.6c-1.9,0.1-3.2-0.7-3.3-2.3c-0.1-2.9-0.1-5.8,0-8.8c0.1-1.6,1.5-2.7,3-2.6
		c1.9,0.1,2.9,1.1,2.9,3c0,0.1,0,0.1,0,0.2C223.7,169.8,223.7,171.1,223.7,172.4z"/>
	<path class="st11" d="M93.9,167.9c-0.1-2.9-2.2-4.4-5.3-4.3c-3,0.1-4.8,1.7-4.8,4.6c0,1.3,0,2.7,0,4c0,1.4,0,2.8,0,4.2
		c0.1,3,1.8,4.6,4.9,4.7c3,0.1,5.1-1.6,5.2-4.4C94.1,173.7,94.1,170.8,93.9,167.9z M88.6,179c-1.8-0.1-2.7-0.8-2.8-2.7
		c-0.1-1.4,0-2.8,0-4.2c0-1.3,0-2.6,0-3.9c0.1-1.9,1-2.8,2.8-2.9c1.6-0.1,3.1,1,3.2,2.6c0.1,2.9,0.1,5.7,0,8.6
		C91.8,178.2,90.5,179.1,88.6,179z"/>
	<path class="st1" d="M255.3,167.8c-0.2-2.9-2.2-4.4-5.5-4.3c-2.8,0.1-4.6,1.8-4.7,4.6c0,1.3,0,2.7,0,4c0,1.4,0,2.8,0,4.2
		c0.1,3,1.9,4.6,5,4.7c2.9,0.1,5-1.6,5.2-4.3C255.4,173.8,255.4,170.8,255.3,167.8z M253.1,176.7c-0.1,1.7-1.4,2.5-3.3,2.4
		c-1.7-0.1-2.6-1-2.6-2.6c-0.1-1.4,0-2.8,0-4.2c0-1.3,0-2.7,0-4c0.1-1.7,1-2.6,2.8-2.8c1.6-0.1,3.1,0.8,3.1,2.4
		C253.3,170.7,253.3,173.7,253.1,176.7z"/>
	<path class="st5" d="M64.5,168.2c-0.1-2.9-1.8-4.6-4.8-4.7c-3.2-0.1-5.3,1.5-5.4,4.4c-0.1,2.9-0.1,5.8,0,8.8
		c0.1,2.8,2.3,4.5,5.3,4.4c3-0.1,4.8-1.8,4.9-4.6c0-1.4,0-2.8,0-4.2C64.5,170.9,64.5,169.6,64.5,168.2z M62.4,172.4
		C62.4,172.4,62.4,172.4,62.4,172.4c0,1.3,0,2.7,0,4c-0.1,1.8-1,2.6-2.8,2.6c-1.9,0.1-3.1-0.8-3.1-2.5c-0.1-2.8-0.1-5.6,0-8.4
		c0.1-1.7,1.4-2.8,3-2.8c1.9,0,2.9,1,2.9,3c0,0.1,0,0.2,0,0.4C62.4,169.9,62.4,171.1,62.4,172.4z"/>
	<path class="st1" d="M134.2,178.7c-1.4-4.6-2.8-9.3-4.3-13.9c-0.2-0.8-0.5-1.4-1.5-1.4c-1,0-1.3,0.6-1.5,1.4
		c-1.3,4.4-2.7,8.7-4,13.1c-0.2,0.9-1.6,2.2,0.2,2.8c1.7,0.5,1.4-1.3,1.7-2.2c0.3-1.1,0.7-1.8,2-1.6c0.5,0.1,0.9,0,1.4,0
		c3.1,0,3.1,0,3.9,2.5c0.3,0.8,0.5,1.7,1.6,1.3C134.9,180.3,134.4,179.4,134.2,178.7z M130.6,175c-1.4,0.1-2.8,0.1-4.2,0.1
		c-0.5,0-0.3-0.5-0.2-0.8c0.7-2.3,1.4-4.7,2.1-7c0.1,0,0.3,0,0.4,0c0.7,2.3,1.4,4.6,2.1,6.9C130.8,174.5,131,175,130.6,175z"/>
	<path class="st4" d="M295.7,179c-1.4-4.7-2.9-9.4-4.3-14c-0.3-0.8-0.5-1.5-1.6-1.5c-1,0-1.2,0.7-1.4,1.5c-1.1,3.5-2.1,6.9-3.2,10.4
		c-0.4,1.3-0.9,2.7-1.2,4c-0.2,0.6-0.3,1.2,0.5,1.4c0.7,0.2,1.3,0,1.5-0.8c0.2-0.6,0.3-1.2,0.5-1.8c0.2-0.4,0.1-1.1,0.7-1.1
		c1.8,0,3.7-0.3,5.4,0.1c1,0.2,0.7,1.8,1.2,2.7c0.1,0.2,0.1,0.3,0.2,0.5c0.2,0.5,0.7,0.6,1.2,0.4c0.5-0.1,0.8-0.5,0.8-0.9
		C295.8,179.5,295.8,179.2,295.7,179z M291.3,175.2c-4.9-0.1-4.2,0.8-3-3.6c0.4-1.4,0.9-2.9,1.3-4.3c0.1,0,0.3,0,0.4,0
		c0.7,2.3,1.3,4.6,2,6.9C292.3,174.9,292.1,175.2,291.3,175.2z"/>
	<path class="st1" d="M149.9,175.9c0.5-0.1,0.9,0,1.4,0c0.5,0,1.1,0,1.6,0c2.3,0,3.1-1.1,2.3-3.4c-0.7-2-2.9-3.3-5.1-2.9
		c-2.3,0.4-3.9,2.2-3.8,4.5c0,0.5,0.2,1.1,0,1.6c-1.1,3.9,3.6,6.9,7.7,4.9c0.7-0.3,1.5-0.7,1-1.7c-0.5-0.9-1.1-0.2-1.7,0
		c-1.6,0.7-3.1,0.7-4.4-0.6c-0.6-0.6-1-1.3-0.7-2C148.5,175.5,149.4,175.9,149.9,175.9z M149.5,171.5c1.1-0.7,2.1-0.5,3.1,0.2
		c0.7,0.5,1.2,1.4,0.8,2.1c-0.6,1.1-1.8,0.2-2.6,0.5c-0.3,0-0.4,0-0.5,0c-0.7-0.2-1.8,0.5-2.1-0.6
		C148,172.9,148.7,172.1,149.5,171.5z"/>
</g>
</svg>
